<?xml version="1.0" encoding="UTF-8"?>
<svg width="188px" height="400px" viewBox="0 0 188 400" version="1.1" xmlns="http://www.w3.org/2000/svg" xmlns:xlink="http://www.w3.org/1999/xlink">
    <!-- Generator: Sketch 55.2 (78181) - https://sketchapp.com -->
    <title>image2vector</title>
    <desc>Created with Sketch.</desc>
    <g id="Page-1" stroke="none" stroke-width="1" fill="none" fill-rule="evenodd">
        <g id="image2vector" transform="translate(0.000000, -1.000000)">
            <path d="M179,1.4 C178.864,1.62 178.343,1.8 177.843,1.8 C177.343,1.8 176.805,1.928 176.648,2.085 C176.206,2.527 172.683,3.799 171.9,3.8 C171.515,3.8 171.2,3.98 171.2,4.2 C171.2,4.42 170.84,4.6 170.4,4.6 C169.96,4.6 169.6,4.78 169.6,5 C169.6,5.22 169.24,5.4 168.8,5.4 C168.36,5.4 168,5.58 168,5.8 C168,6.02 167.561,6.2 167.024,6.2 C166.487,6.2 165.936,6.38 165.8,6.6 C165.664,6.82 165.193,7 164.753,7 C164.313,7 164.064,7.18 164.2,7.4 C164.34,7.627 164.004,7.8 163.424,7.8 C162.861,7.8 162.4,7.98 162.4,8.2 C162.4,8.42 162.045,8.6 161.612,8.6 C161.179,8.6 160.183,8.96 159.4,9.4 C158.617,9.84 157.711,10.2 157.388,10.2 C157.065,10.2 156.8,10.38 156.8,10.6 C156.8,10.82 156.395,11.001 155.9,11.002 C155.405,11.003 154.114,11.453 153.032,12.002 C151.95,12.551 150.861,13 150.612,13 C149.929,13 148.007,13.958 148.003,14.3 C148.001,14.465 147.64,14.6 147.2,14.6 C146.76,14.6 146.4,14.78 146.4,15 C146.4,15.22 146.038,15.4 145.596,15.4 C144.551,15.4 141.093,17.002 140.68,17.677 C140.504,17.965 139.93,18.2 139.404,18.2 C138.878,18.2 138.328,18.392 138.183,18.627 C138.038,18.862 137.667,18.958 137.36,18.84 C137.025,18.712 136.8,18.88 136.8,19.259 C136.8,19.696 136.552,19.828 136,19.684 C135.56,19.569 135.2,19.638 135.2,19.837 C135.2,20.037 134.66,20.2 134,20.2 C133.34,20.2 132.799,20.335 132.797,20.5 C132.793,20.859 130.856,21.8 130.12,21.8 C129.834,21.8 129.6,21.98 129.6,22.2 C129.6,22.42 129.245,22.6 128.812,22.6 C128.379,22.6 127.383,22.96 126.6,23.4 C125.817,23.84 124.911,24.2 124.588,24.2 C124.265,24.2 124,24.38 124,24.6 C124,24.82 123.586,25 123.08,25 C122.574,25 121.989,25.163 121.78,25.362 C120.91,26.192 118.306,27.4 117.388,27.4 C116.845,27.4 116.4,27.58 116.4,27.8 C116.4,28.02 116.076,28.2 115.68,28.2 C114.738,28.2 114.007,28.953 114.274,29.649 C114.517,30.282 116.63,30.399 117,29.8 C117.136,29.58 117.687,29.4 118.224,29.4 C118.761,29.4 119.2,29.22 119.2,29 C119.2,28.78 119.92,28.6 120.8,28.6 C121.68,28.6 122.4,28.42 122.4,28.2 C122.4,27.98 122.94,27.8 123.6,27.8 C124.26,27.8 124.8,27.62 124.8,27.4 C124.8,27.18 125.531,27 126.424,27 C127.317,27 127.951,26.845 127.835,26.656 C127.718,26.467 128.734,26.195 130.093,26.053 C131.453,25.911 132.744,25.616 132.962,25.398 C133.181,25.179 133.943,25 134.656,25 C135.369,25 136.064,24.82 136.2,24.6 C136.336,24.38 136.876,24.2 137.4,24.2 C137.924,24.2 138.464,24.02 138.6,23.8 C138.736,23.58 139.456,23.4 140.2,23.4 C140.944,23.4 141.664,23.22 141.8,23 C141.936,22.78 142.429,22.6 142.895,22.6 C143.796,22.6 146.139,21.935 147.295,21.351 C147.677,21.158 148.532,21 149.195,21 C149.858,21 150.4,20.82 150.4,20.6 C150.4,20.38 150.841,20.2 151.38,20.2 C151.919,20.2 152.527,19.903 152.73,19.54 C153.011,19.037 153.447,18.935 154.55,19.114 C155.695,19.3 156,19.219 156,18.728 C156,18.279 156.281,18.16 157.01,18.3 C157.565,18.406 158.115,18.337 158.233,18.146 C158.351,17.956 159.056,17.8 159.8,17.8 C160.544,17.8 161.264,17.62 161.4,17.4 C161.536,17.18 162.357,17 163.224,17 C164.091,17 164.8,16.864 164.8,16.697 C164.8,16.3 167.709,15.4 168.994,15.4 C169.547,15.4 170,15.22 170,15 C170,14.78 170.54,14.6 171.2,14.6 C171.86,14.6 172.4,14.42 172.4,14.2 C172.4,13.98 173.131,13.8 174.024,13.8 C175.004,13.8 175.549,13.642 175.4,13.4 C175.253,13.162 175.729,13 176.576,13 C177.359,13 178,12.82 178,12.6 C178,12.38 178.619,12.2 179.376,12.2 C180.133,12.2 180.864,12.02 181,11.8 C181.136,11.58 181.741,11.4 182.344,11.4 C185.319,11.4 187.2,9.078 187.2,5.406 C187.2,4.069 187.022,3 186.8,3 C186.58,3 186.4,2.646 186.4,2.213 C186.4,1.677 186.208,1.499 185.8,1.655 C185.47,1.782 185.2,1.686 185.2,1.443 C185.2,0.877 179.348,0.837 179,1.4 M60.442,14.16 L59.2,15.321 L59.2,38.486 L59.2,61.65 L60.322,62.725 L61.444,63.8 L84.664,63.8 L107.884,63.8 L108.942,62.523 C109.98,61.27 110,61.136 110,55.356 C110,47.719 110.266,48.2 106.036,48.2 C102.409,48.2 98.4,46.849 98.4,45.626 C98.4,45.35 98.04,44.798 97.6,44.4 C97.101,43.948 96.8,43.168 96.8,42.325 C96.8,41.494 96.569,40.886 96.2,40.745 C95.783,40.585 95.6,39.933 95.6,38.606 C95.6,37.398 95.82,36.515 96.2,36.2 C96.53,35.926 96.8,35.364 96.8,34.951 C96.8,34.538 96.98,34.2 97.2,34.2 C97.42,34.2 97.6,33.892 97.6,33.515 C97.6,32.229 100.819,29.4 102.283,29.4 C103.007,29.4 103.6,29.228 103.6,29.017 C103.6,28.806 104.995,28.581 106.7,28.517 L109.8,28.4 L109.91,21.9 C109.977,17.95 109.87,15.4 109.637,15.4 C109.426,15.4 109.152,15.085 109.028,14.7 C108.497,13.06 107.614,13 84.163,13 L61.685,13 L60.442,14.16 M114.253,47.206 C113.739,48.545 113.98,49 115.2,49 C115.86,49 116.4,49.18 116.4,49.4 C116.4,49.62 116.535,49.757 116.7,49.705 C117.18,49.553 119.6,50.663 119.6,51.036 C119.6,51.222 119.871,51.271 120.203,51.143 C120.89,50.88 123.6,52.047 123.6,52.606 C123.6,52.809 123.868,52.872 124.197,52.746 C124.537,52.615 124.899,52.792 125.039,53.158 C125.175,53.511 125.699,53.8 126.205,53.8 C127.141,53.8 130.49,55.354 130.733,55.9 C130.807,56.065 131.193,56.2 131.593,56.2 C131.992,56.2 133.345,56.74 134.6,57.4 C135.855,58.06 137.212,58.6 137.617,58.6 C138.022,58.6 138.455,58.766 138.581,58.969 C138.706,59.172 139.347,59.457 140.005,59.601 C140.662,59.745 141.2,60.029 141.2,60.232 C141.2,60.434 141.614,60.6 142.12,60.6 C143.174,60.6 145.192,61.453 145.197,61.9 C145.199,62.065 145.65,62.2 146.2,62.2 C146.75,62.2 147.2,62.38 147.2,62.6 C147.2,62.82 147.524,63 147.92,63 C148.814,63 150.793,63.894 150.797,64.3 C150.799,64.465 151.16,64.6 151.6,64.6 C152.04,64.6 152.4,64.78 152.4,65 C152.4,65.22 152.728,65.4 153.129,65.4 C153.53,65.4 154.925,65.914 156.229,66.542 C157.533,67.17 159.275,67.808 160.1,67.96 C161.055,68.136 161.6,68.457 161.6,68.845 C161.6,69.272 161.839,69.378 162.4,69.2 C162.968,69.02 163.2,69.128 163.2,69.573 C163.2,69.969 163.555,70.2 164.162,70.2 C165.13,70.2 168.485,71.741 168.733,72.3 C168.807,72.465 169.276,72.6 169.777,72.6 C170.278,72.6 171.748,73.116 173.044,73.746 C176.599,75.474 178.364,76.2 179.014,76.2 C179.336,76.2 179.6,76.38 179.6,76.6 C179.6,77.173 183.441,77.095 184.505,76.5 C186.922,75.149 187.2,74.635 187.2,71.507 C187.2,69.639 187.053,68.644 186.8,68.8 C186.58,68.936 186.4,68.756 186.4,68.4 C186.4,68.044 186.22,67.864 186,68 C185.78,68.136 185.6,68.044 185.6,67.795 C185.6,67.01 184.497,66.2 183.429,66.2 C182.863,66.2 182.4,66.04 182.4,65.845 C182.4,65.492 181.141,65.151 178.3,64.735 C177.475,64.615 176.8,64.355 176.8,64.158 C176.8,63.961 176.181,63.8 175.424,63.8 C174.667,63.8 173.936,63.62 173.8,63.4 C173.664,63.18 173.124,63 172.6,63 C172.076,63 171.536,62.82 171.4,62.6 C171.264,62.38 170.569,62.2 169.856,62.2 C169.143,62.2 168.37,62.01 168.137,61.777 C167.904,61.544 166.693,61.249 165.445,61.12 C164.197,60.991 163.081,60.731 162.965,60.543 C162.848,60.354 162.313,60.2 161.776,60.2 C161.239,60.2 160.8,60.02 160.8,59.8 C160.8,59.58 160.08,59.4 159.2,59.4 C158.32,59.4 157.6,59.22 157.6,59 C157.6,58.78 156.88,58.6 156,58.6 C155.12,58.6 154.4,58.42 154.4,58.2 C154.4,57.98 153.961,57.8 153.424,57.8 C152.887,57.8 152.336,57.62 152.2,57.4 C152.064,57.18 151.344,57 150.6,57 C149.856,57 149.136,56.82 149,56.6 C148.864,56.38 148.324,56.2 147.8,56.2 C147.276,56.2 146.736,56.02 146.6,55.8 C146.464,55.58 145.744,55.4 145,55.4 C144.256,55.4 143.536,55.22 143.4,55 C143.264,54.78 142.533,54.6 141.776,54.6 C141.019,54.6 140.4,54.459 140.4,54.287 C140.4,54.115 139.923,53.935 139.34,53.887 C138.758,53.839 138.083,53.642 137.84,53.449 C137.598,53.256 136.354,52.972 135.075,52.817 C133.797,52.663 132.665,52.313 132.56,52.04 C132.445,51.741 131.902,51.612 131.199,51.715 C130.465,51.823 129.79,51.647 129.386,51.243 C129.032,50.889 128.396,50.6 127.971,50.6 C127.547,50.6 127.2,50.42 127.2,50.2 C127.2,49.98 126.491,49.8 125.624,49.8 C124.757,49.8 123.936,49.62 123.8,49.4 C123.664,49.18 122.933,49 122.176,49 C121.419,49 120.8,48.82 120.8,48.6 C120.8,48.38 120.271,48.2 119.624,48.2 C118.977,48.2 118.336,48.02 118.2,47.8 C118.064,47.58 117.369,47.4 116.656,47.4 C115.943,47.4 115.168,47.208 114.933,46.973 C114.631,46.671 114.432,46.738 114.253,47.206 M47.6,77 C47.6,77.22 46.698,77.4 45.595,77.4 C44.492,77.4 43.277,77.574 42.895,77.786 C42.513,77.998 41.39,78.528 40.4,78.963 C39.41,79.398 38.113,80.214 37.517,80.777 C36.922,81.34 36.187,81.8 35.885,81.8 C35.583,81.8 35.08,82.295 34.768,82.9 C34.455,83.505 33.676,84.585 33.036,85.3 L31.871,86.6 L23.736,86.6 C18.579,86.6 15.6,86.746 15.6,87 C15.6,87.22 15.265,87.4 14.855,87.4 C12.074,87.4 5.198,92.632 3.62,95.948 C3.293,96.637 2.884,97.26 2.712,97.333 C2.541,97.407 2.4,97.801 2.4,98.21 C2.4,98.618 2.22,99.064 2,99.2 C1.78,99.336 1.6,99.887 1.6,100.424 C1.6,100.961 1.42,101.4 1.2,101.4 C0.948,101.4 0.8,104.067 0.8,108.6 C0.8,113.133 0.948,115.8 1.2,115.8 C1.42,115.8 1.6,116.43 1.6,117.2 C1.6,117.97 1.736,118.6 1.902,118.6 C2.069,118.6 2.46,119.185 2.771,119.9 C3.083,120.615 3.757,121.871 4.269,122.692 L5.2,124.184 L5.2,244.522 L5.2,364.861 L4.2,365.8 C3.65,366.317 3.2,367.079 3.2,367.493 C3.2,367.908 3.02,368.136 2.8,368 C2.58,367.864 2.4,368.123 2.4,368.576 C2.4,369.029 2.22,369.4 2,369.4 C1.78,369.4 1.6,369.94 1.6,370.6 C1.6,371.26 1.42,371.8 1.2,371.8 C0.948,371.8 0.8,374.533 0.8,379.2 C0.8,383.867 0.948,386.6 1.2,386.6 C1.42,386.6 1.6,387.32 1.6,388.2 C1.6,389.08 1.736,389.8 1.902,389.8 C2.069,389.8 2.456,390.367 2.763,391.06 C3.069,391.753 3.608,392.631 3.96,393.011 C7.654,396.997 9.675,398.774 11.577,399.708 L13.8,400.800024 L83.8,400.800024 C157.563,400.800024 156.235,400.82 157.247,399.71 C157.603,399.319 158.188,399 158.547,399 C158.906,399 159.2,398.82 159.2,398.6 C159.2,398.38 159.453,398.2 159.761,398.2 C160.328,398.2 165.6,393.121 165.6,392.576 C165.6,392.414 166.14,391.255 166.8,390 C167.46,388.745 168,387.208 168,386.583 C168,385.958 168.18,385.336 168.4,385.2 C168.638,385.053 168.8,382.537 168.8,379 C168.8,375.463 168.638,372.947 168.4,372.8 C168.18,372.664 168,372.248 168,371.876 C168,370.97 164.853,365 164.376,365 C164.142,365 164,319.291 164,244.169 L164,123.338 L165.139,122.2 C165.765,121.573 166.5,120.462 166.772,119.73 C167.044,118.999 167.432,118.087 167.633,117.705 C167.835,117.323 168,116.659 168,116.229 C168,115.799 168.18,115.336 168.4,115.2 C168.898,114.892 168.942,103.67 168.449,102.695 C168.256,102.313 167.881,101.28 167.616,100.4 C166.915,98.076 166.101,96.382 165.407,95.806 C165.073,95.529 164.795,95.099 164.789,94.851 C164.772,94.184 161.334,90.6 160.711,90.6 C160.417,90.6 159.917,90.24 159.6,89.8 C159.283,89.36 158.703,89 158.312,89 C157.92,89 157.6,88.864 157.6,88.697 C157.6,88.331 154.733,87.4 153.606,87.4 C153.163,87.4 152.8,87.22 152.8,87 C152.8,86.746 149.8,86.6 144.6,86.6 C136.588,86.6 136.4,86.581 136.4,85.776 C136.4,85.323 136.22,85.064 136,85.2 C135.78,85.336 135.6,85.264 135.6,85.04 C135.6,83.762 129.011,78.649 126.928,78.311 C126.198,78.192 125.6,77.939 125.6,77.748 C125.6,77.556 124.531,77.4 123.224,77.4 C121.917,77.4 120.736,77.22 120.6,77 C120.438,76.738 107.796,76.6 83.976,76.6 C59.992,76.6 47.6,76.736 47.6,77 M132.8,132.2 C132.8,132.42 133.252,132.6 133.805,132.6 C135.913,132.6 139.234,135.442 140.008,137.907 C140.3,138.838 140.688,139.771 140.87,139.98 C141.362,140.546 141.293,211 140.8,211 C140.58,211 140.4,211.429 140.4,211.954 C140.4,213.21 139.693,214.505 138.1,216.164 C137.385,216.909 136.8,217.683 136.8,217.883 C136.8,218.083 136.62,218.136 136.4,218 C136.18,217.864 136,218.046 136,218.403 C136,218.872 135.776,218.983 135.2,218.8 C134.632,218.62 134.4,218.728 134.4,219.173 C134.4,220.1 127.401,220.102 127.046,219.175 C126.914,218.831 126.619,218.664 126.392,218.805 C126.164,218.946 125.668,218.68 125.289,218.215 C124.91,217.75 124.152,217.146 123.604,216.874 C123.055,216.602 122.539,216.027 122.456,215.596 C122.373,215.164 121.966,214.518 121.553,214.159 C121.139,213.8 120.8,213.133 120.8,212.677 C120.8,212.22 120.62,211.736 120.4,211.6 C120.138,211.438 120,199.129 120,175.976 C120,152.659 120.136,140.6 120.4,140.6 C120.62,140.6 120.8,140.148 120.8,139.595 C120.8,137.693 123.649,134.323 126.6,132.733 C128.29,131.822 132.8,131.435 132.8,132.2 M131.299,235.896 C131.401,236.203 132.022,236.344 132.932,236.265 C133.811,236.189 134.4,236.316 134.4,236.579 C134.4,236.822 134.855,237.193 135.41,237.404 C135.966,237.615 136.525,238.061 136.653,238.394 C136.781,238.727 137.065,239 137.285,239 C138.215,239 140.4,242.54 140.4,244.046 C140.4,244.571 140.58,245 140.8,245 C141.057,245 141.2,249.127 141.2,256.581 C141.2,267.584 141.017,269.701 139.987,270.6 C139.861,270.71 139.453,271.43 139.081,272.2 C138.122,274.181 137.413,275 136.656,275 C136.295,275 136,275.18 136,275.4 C136,275.62 135.64,275.8 135.2,275.8 C134.76,275.8 134.4,275.98 134.4,276.2 C134.4,276.42 133.86,276.6 133.2,276.6 C132.54,276.6 132,276.78 132,277 C132,277.22 131.359,277.4 130.576,277.4 C129.729,277.4 129.253,277.238 129.4,277 C129.549,276.758 129.004,276.6 128.024,276.6 C127.131,276.6 126.4,276.42 126.4,276.2 C126.4,275.98 126.13,275.8 125.8,275.8 C125.47,275.8 125.2,275.62 125.2,275.4 C125.2,275.18 125.014,275 124.787,275 C123.61,275 120.8,271.181 120.8,269.582 C120.8,268.998 120.627,268.66 120.4,268.8 C120.137,268.963 120,264.812 120,256.647 C120,248.812 120.147,244.156 120.4,244 C120.62,243.864 120.8,243.431 120.8,243.038 C120.8,242.645 121.16,241.998 121.6,241.6 C122.04,241.202 122.4,240.725 122.4,240.541 C122.4,239.87 124.164,238.2 124.872,238.2 C125.272,238.2 125.6,238.02 125.6,237.8 C125.6,237.58 125.96,237.4 126.4,237.4 C126.844,237.4 127.2,237.133 127.2,236.8 C127.2,236.383 127.62,236.2 128.576,236.2 C129.333,236.2 130.064,236.02 130.2,235.8 C130.54,235.25 131.099,235.298 131.299,235.896" id="path0" fill="#EC144C"></path>
            <path d="M177.7,1.289 C176.985,1.378 176.4,1.619 176.4,1.825 C176.4,2.031 176.04,2.2 175.6,2.2 C175.16,2.2 174.8,2.363 174.8,2.563 C174.8,2.996 176.319,2.655 176.63,2.152 C176.749,1.958 177.276,1.8 177.8,1.8 C178.324,1.8 178.864,1.62 179,1.4 C179.136,1.18 179.192,1.029 179.124,1.064 C179.056,1.099 178.415,1.201 177.7,1.289 M140.4,17.333 C140.4,17.59 139.937,17.8 139.371,17.8 C138.806,17.8 138.073,18.07 137.743,18.4 C137.413,18.73 137.325,19 137.548,19 C137.771,19 138.064,18.82 138.2,18.6 C138.336,18.38 138.876,18.2 139.4,18.2 C140.357,18.2 141.088,17.555 140.64,17.107 C140.508,16.975 140.4,17.077 140.4,17.333 M153.3,19.276 C153.685,19.376 154.315,19.376 154.7,19.276 C155.085,19.175 154.77,19.093 154,19.093 C153.23,19.093 152.915,19.175 153.3,19.276 M96.034,36.359 C95.752,36.699 95.616,37.735 95.705,38.869 L95.856,40.8 L95.928,38.733 C95.971,37.499 96.201,36.595 96.5,36.488 C96.775,36.39 96.891,36.191 96.757,36.045 C96.623,35.9 96.298,36.041 96.034,36.359 M120.7,51.282 C121.195,51.378 121.6,51.623 121.6,51.828 C121.6,52.033 121.945,52.2 122.367,52.2 C122.788,52.2 123.224,52.425 123.335,52.7 C123.477,53.05 123.546,53.059 123.568,52.729 C123.606,52.176 121.362,50.976 120.439,51.054 C120.087,51.084 120.205,51.187 120.7,51.282 M130.1,51.676 C130.485,51.776 131.115,51.776 131.5,51.676 C131.885,51.575 131.57,51.493 130.8,51.493 C130.03,51.493 129.715,51.575 130.1,51.676 M132.56,51.88 C132.673,52.447 135.2,53.088 135.2,52.549 C135.2,52.357 134.675,52.2 134.033,52.2 C133.392,52.2 132.775,52.016 132.663,51.79 C132.552,51.565 132.505,51.605 132.56,51.88 M132.196,81.396 C132.826,82.054 133.419,82.514 133.513,82.42 C133.722,82.212 131.756,80.2 131.343,80.2 C131.182,80.2 131.566,80.738 132.196,81.396 M165.402,95.802 C165.802,96.244 166.211,96.522 166.312,96.421 C166.528,96.205 165.388,95 164.967,95 C164.807,95 165.003,95.361 165.402,95.802 M137.6,134.669 C137.6,135.066 139.206,136.727 139.401,136.532 C139.509,136.425 139.148,135.914 138.598,135.399 C138.049,134.883 137.6,134.554 137.6,134.669 M128.9,219.694 C129.945,219.776 131.655,219.776 132.7,219.694 C133.745,219.612 132.89,219.544 130.8,219.544 C128.71,219.544 127.855,219.612 128.9,219.694 M130.18,235.771 C129.971,235.976 129.17,236.217 128.4,236.307 L127,236.472 L128.529,236.536 C129.43,236.574 130.303,236.354 130.657,236 C130.987,235.67 131.1,235.4 130.909,235.4 C130.717,235.4 130.389,235.567 130.18,235.771 M132.5,236.476 C132.885,236.576 133.515,236.576 133.9,236.476 C134.285,236.375 133.97,236.293 133.2,236.293 C132.43,236.293 132.115,236.375 132.5,236.476" id="path1" fill="#F0144C"></path>
            <path d="M177.7,1.289 C176.985,1.378 176.4,1.619 176.4,1.825 C176.4,2.031 176.04,2.2 175.6,2.2 C175.16,2.2 174.8,2.363 174.8,2.563 C174.8,2.996 176.319,2.655 176.63,2.152 C176.749,1.958 177.276,1.8 177.8,1.8 C178.324,1.8 178.864,1.62 179,1.4 C179.136,1.18 179.192,1.029 179.124,1.064 C179.056,1.099 178.415,1.201 177.7,1.289 M140.4,17.333 C140.4,17.59 139.937,17.8 139.371,17.8 C138.806,17.8 138.073,18.07 137.743,18.4 C137.413,18.73 137.325,19 137.548,19 C137.771,19 138.064,18.82 138.2,18.6 C138.336,18.38 138.876,18.2 139.4,18.2 C140.357,18.2 141.088,17.555 140.64,17.107 C140.508,16.975 140.4,17.077 140.4,17.333 M153.3,19.276 C153.685,19.376 154.315,19.376 154.7,19.276 C155.085,19.175 154.77,19.093 154,19.093 C153.23,19.093 152.915,19.175 153.3,19.276 M96.034,36.359 C95.752,36.699 95.616,37.735 95.705,38.869 L95.856,40.8 L95.928,38.733 C95.971,37.499 96.201,36.595 96.5,36.488 C96.775,36.39 96.891,36.191 96.757,36.045 C96.623,35.9 96.298,36.041 96.034,36.359 M120.7,51.282 C121.195,51.378 121.6,51.623 121.6,51.828 C121.6,52.033 121.945,52.2 122.367,52.2 C122.788,52.2 123.224,52.425 123.335,52.7 C123.477,53.05 123.546,53.059 123.568,52.729 C123.606,52.176 121.362,50.976 120.439,51.054 C120.087,51.084 120.205,51.187 120.7,51.282 M130.1,51.676 C130.485,51.776 131.115,51.776 131.5,51.676 C131.885,51.575 131.57,51.493 130.8,51.493 C130.03,51.493 129.715,51.575 130.1,51.676 M132.56,51.88 C132.673,52.447 135.2,53.088 135.2,52.549 C135.2,52.357 134.675,52.2 134.033,52.2 C133.392,52.2 132.775,52.016 132.663,51.79 C132.552,51.565 132.505,51.605 132.56,51.88 M132.196,81.396 C132.826,82.054 133.419,82.514 133.513,82.42 C133.722,82.212 131.756,80.2 131.343,80.2 C131.182,80.2 131.566,80.738 132.196,81.396 M165.402,95.802 C165.802,96.244 166.211,96.522 166.312,96.421 C166.528,96.205 165.388,95 164.967,95 C164.807,95 165.003,95.361 165.402,95.802 M137.6,134.669 C137.6,135.066 139.206,136.727 139.401,136.532 C139.509,136.425 139.148,135.914 138.598,135.399 C138.049,134.883 137.6,134.554 137.6,134.669 M128.9,219.694 C129.945,219.776 131.655,219.776 132.7,219.694 C133.745,219.612 132.89,219.544 130.8,219.544 C128.71,219.544 127.855,219.612 128.9,219.694 M130.18,235.771 C129.971,235.976 129.17,236.217 128.4,236.307 L127,236.472 L128.529,236.536 C129.43,236.574 130.303,236.354 130.657,236 C130.987,235.67 131.1,235.4 130.909,235.4 C130.717,235.4 130.389,235.567 130.18,235.771 M132.5,236.476 C132.885,236.576 133.515,236.576 133.9,236.476 C134.285,236.375 133.97,236.293 133.2,236.293 C132.43,236.293 132.115,236.375 132.5,236.476" id="path2" fill="#F0144C"></path>
            <path d="M177.7,1.289 C176.985,1.378 176.4,1.619 176.4,1.825 C176.4,2.031 176.04,2.2 175.6,2.2 C175.16,2.2 174.8,2.363 174.8,2.563 C174.8,2.996 176.319,2.655 176.63,2.152 C176.749,1.958 177.276,1.8 177.8,1.8 C178.324,1.8 178.864,1.62 179,1.4 C179.136,1.18 179.192,1.029 179.124,1.064 C179.056,1.099 178.415,1.201 177.7,1.289 M140.4,17.333 C140.4,17.59 139.937,17.8 139.371,17.8 C138.806,17.8 138.073,18.07 137.743,18.4 C137.413,18.73 137.325,19 137.548,19 C137.771,19 138.064,18.82 138.2,18.6 C138.336,18.38 138.876,18.2 139.4,18.2 C140.357,18.2 141.088,17.555 140.64,17.107 C140.508,16.975 140.4,17.077 140.4,17.333 M153.3,19.276 C153.685,19.376 154.315,19.376 154.7,19.276 C155.085,19.175 154.77,19.093 154,19.093 C153.23,19.093 152.915,19.175 153.3,19.276 M96.034,36.359 C95.752,36.699 95.616,37.735 95.705,38.869 L95.856,40.8 L95.928,38.733 C95.971,37.499 96.201,36.595 96.5,36.488 C96.775,36.39 96.891,36.191 96.757,36.045 C96.623,35.9 96.298,36.041 96.034,36.359 M120.7,51.282 C121.195,51.378 121.6,51.623 121.6,51.828 C121.6,52.033 121.945,52.2 122.367,52.2 C122.788,52.2 123.224,52.425 123.335,52.7 C123.477,53.05 123.546,53.059 123.568,52.729 C123.606,52.176 121.362,50.976 120.439,51.054 C120.087,51.084 120.205,51.187 120.7,51.282 M130.1,51.676 C130.485,51.776 131.115,51.776 131.5,51.676 C131.885,51.575 131.57,51.493 130.8,51.493 C130.03,51.493 129.715,51.575 130.1,51.676 M132.56,51.88 C132.673,52.447 135.2,53.088 135.2,52.549 C135.2,52.357 134.675,52.2 134.033,52.2 C133.392,52.2 132.775,52.016 132.663,51.79 C132.552,51.565 132.505,51.605 132.56,51.88 M132.196,81.396 C132.826,82.054 133.419,82.514 133.513,82.42 C133.722,82.212 131.756,80.2 131.343,80.2 C131.182,80.2 131.566,80.738 132.196,81.396 M165.402,95.802 C165.802,96.244 166.211,96.522 166.312,96.421 C166.528,96.205 165.388,95 164.967,95 C164.807,95 165.003,95.361 165.402,95.802 M137.6,134.669 C137.6,135.066 139.206,136.727 139.401,136.532 C139.509,136.425 139.148,135.914 138.598,135.399 C138.049,134.883 137.6,134.554 137.6,134.669 M128.9,219.694 C129.945,219.776 131.655,219.776 132.7,219.694 C133.745,219.612 132.89,219.544 130.8,219.544 C128.71,219.544 127.855,219.612 128.9,219.694 M130.18,235.771 C129.971,235.976 129.17,236.217 128.4,236.307 L127,236.472 L128.529,236.536 C129.43,236.574 130.303,236.354 130.657,236 C130.987,235.67 131.1,235.4 130.909,235.4 C130.717,235.4 130.389,235.567 130.18,235.771 M132.5,236.476 C132.885,236.576 133.515,236.576 133.9,236.476 C134.285,236.375 133.97,236.293 133.2,236.293 C132.43,236.293 132.115,236.375 132.5,236.476" id="path3" fill="#F0144C"></path>
            <path d="M177.7,1.289 C176.985,1.378 176.4,1.619 176.4,1.825 C176.4,2.031 176.04,2.2 175.6,2.2 C175.16,2.2 174.8,2.363 174.8,2.563 C174.8,2.996 176.319,2.655 176.63,2.152 C176.749,1.958 177.276,1.8 177.8,1.8 C178.324,1.8 178.864,1.62 179,1.4 C179.136,1.18 179.192,1.029 179.124,1.064 C179.056,1.099 178.415,1.201 177.7,1.289 M140.4,17.333 C140.4,17.59 139.937,17.8 139.371,17.8 C138.806,17.8 138.073,18.07 137.743,18.4 C137.413,18.73 137.325,19 137.548,19 C137.771,19 138.064,18.82 138.2,18.6 C138.336,18.38 138.876,18.2 139.4,18.2 C140.357,18.2 141.088,17.555 140.64,17.107 C140.508,16.975 140.4,17.077 140.4,17.333 M153.3,19.276 C153.685,19.376 154.315,19.376 154.7,19.276 C155.085,19.175 154.77,19.093 154,19.093 C153.23,19.093 152.915,19.175 153.3,19.276 M96.034,36.359 C95.752,36.699 95.616,37.735 95.705,38.869 L95.856,40.8 L95.928,38.733 C95.971,37.499 96.201,36.595 96.5,36.488 C96.775,36.39 96.891,36.191 96.757,36.045 C96.623,35.9 96.298,36.041 96.034,36.359 M120.7,51.282 C121.195,51.378 121.6,51.623 121.6,51.828 C121.6,52.033 121.945,52.2 122.367,52.2 C122.788,52.2 123.224,52.425 123.335,52.7 C123.477,53.05 123.546,53.059 123.568,52.729 C123.606,52.176 121.362,50.976 120.439,51.054 C120.087,51.084 120.205,51.187 120.7,51.282 M130.1,51.676 C130.485,51.776 131.115,51.776 131.5,51.676 C131.885,51.575 131.57,51.493 130.8,51.493 C130.03,51.493 129.715,51.575 130.1,51.676 M132.56,51.88 C132.673,52.447 135.2,53.088 135.2,52.549 C135.2,52.357 134.675,52.2 134.033,52.2 C133.392,52.2 132.775,52.016 132.663,51.79 C132.552,51.565 132.505,51.605 132.56,51.88 M132.196,81.396 C132.826,82.054 133.419,82.514 133.513,82.42 C133.722,82.212 131.756,80.2 131.343,80.2 C131.182,80.2 131.566,80.738 132.196,81.396 M165.402,95.802 C165.802,96.244 166.211,96.522 166.312,96.421 C166.528,96.205 165.388,95 164.967,95 C164.807,95 165.003,95.361 165.402,95.802 M137.6,134.669 C137.6,135.066 139.206,136.727 139.401,136.532 C139.509,136.425 139.148,135.914 138.598,135.399 C138.049,134.883 137.6,134.554 137.6,134.669 M128.9,219.694 C129.945,219.776 131.655,219.776 132.7,219.694 C133.745,219.612 132.89,219.544 130.8,219.544 C128.71,219.544 127.855,219.612 128.9,219.694 M130.18,235.771 C129.971,235.976 129.17,236.217 128.4,236.307 L127,236.472 L128.529,236.536 C129.43,236.574 130.303,236.354 130.657,236 C130.987,235.67 131.1,235.4 130.909,235.4 C130.717,235.4 130.389,235.567 130.18,235.771 M132.5,236.476 C132.885,236.576 133.515,236.576 133.9,236.476 C134.285,236.375 133.97,236.293 133.2,236.293 C132.43,236.293 132.115,236.375 132.5,236.476" id="path4" fill="#F0144C"></path>
        </g>
    </g>
</svg>