<?xml version="1.0" standalone="no"?>
<!DOCTYPE svg PUBLIC "-//W3C//DTD SVG 20010904//EN"
 "http://www.w3.org/TR/2001/REC-SVG-20010904/DTD/svg10.dtd">
<svg version="1.0" xmlns="http://www.w3.org/2000/svg"
 width="648.000000pt" height="1280.000000pt" viewBox="0 0 648.000000 1280.000000"
 preserveAspectRatio="xMidYMid meet">
<metadata>
Created by potrace 1.15, written by Peter Selinger 2001-2017
</metadata>
<g transform="translate(0.000000,1280.000000) scale(0.100000,-0.100000)"
fill="#e91e63" stroke="none">
<path d="M2500 12789 c-536 -50 -987 -261 -1304 -611 -88 -98 -187 -230 -181
-245 2 -6 64 -87 138 -180 378 -473 598 -796 746 -1092 61 -120 141 -315 160
-388 11 -41 13 -43 51 -43 33 0 40 4 40 19 0 22 12 25 180 41 58 6 120 13 138
16 24 4 32 1 32 -10 0 -9 -25 -23 -67 -37 -129 -42 -312 -118 -430 -178 -248
-126 -433 -265 -763 -571 -153 -141 -205 -183 -302 -241 -235 -140 -354 -238
-444 -365 -110 -154 -149 -317 -108 -455 9 -30 103 -226 210 -435 153 -300
205 -413 244 -528 75 -219 132 -320 234 -413 82 -76 194 -123 292 -123 l41 0
5 -107 c8 -172 44 -231 155 -253 32 -6 66 -14 75 -16 22 -6 40 -71 36 -127 -3
-41 -6 -44 -93 -102 -72 -48 -94 -69 -113 -105 -41 -84 -50 -266 -26 -516 l7
-62 -84 -27 c-104 -34 -149 -56 -194 -96 -32 -29 -34 -34 -29 -72 17 -121 61
-243 121 -336 43 -67 122 -161 135 -161 5 0 37 20 71 44 74 52 122 78 131 69
12 -12 6 -244 -10 -355 -17 -124 -67 -343 -111 -483 l-29 -90 -79 -8 c-252
-24 -397 -61 -562 -143 -86 -42 -129 -71 -185 -123 -126 -118 -174 -225 -228
-513 -54 -285 -70 -329 -209 -571 -89 -154 -114 -221 -153 -410 -42 -201 -46
-386 -10 -487 55 -160 378 -497 731 -764 684 -517 1624 -918 2503 -1066 653
-110 1225 -85 1676 71 123 43 313 139 407 207 148 106 232 251 420 727 59 149
145 351 190 451 127 276 161 406 143 551 -13 107 -58 185 -238 413 l-20 25 36
110 c19 61 66 218 104 351 452 1569 566 3074 360 4744 -17 135 -33 252 -35
260 -3 8 12 31 31 50 52 50 92 111 116 178 28 75 31 253 6 358 -36 147 -111
339 -173 439 -45 73 -59 139 -58 270 0 66 8 167 17 225 9 58 20 148 23 201 6
96 6 96 -32 175 -46 95 -155 210 -254 268 -213 124 -485 196 -851 226 -69 6
-226 31 -350 55 -539 106 -874 118 -1395 49 -110 -14 -265 -40 -297 -50 -12
-4 -23 6 -38 35 -11 22 -20 45 -20 50 0 6 39 31 88 57 116 63 148 89 179 142
48 81 52 128 26 276 -60 339 -196 994 -278 1341 -47 199 -96 399 -106 438
l-10 37 -167 -1 c-92 -1 -210 -6 -262 -10z m268 -2280 c23 -72 40 -135 37
-139 -3 -4 -26 -13 -52 -19 -27 -7 -56 -14 -65 -17 -14 -4 -24 18 -58 126 -23
73 -40 133 -38 135 2 2 24 13 48 24 81 37 81 37 128 -110z"/>
</g>
</svg>
